<?xml version="1.0" encoding="UTF-8" standalone="no"?>
<!DOCTYPE svg PUBLIC "-//W3C//DTD SVG 1.1//EN" "http://www.w3.org/Graphics/SVG/1.1/DTD/svg11.dtd">
<svg width="100%" height="100%" viewBox="0 0 277 86" version="1.1" xmlns="http://www.w3.org/2000/svg" xmlns:xlink="http://www.w3.org/1999/xlink" xml:space="preserve" xmlns:serif="http://www.serif.com/" style="fill-rule:evenodd;clip-rule:evenodd;stroke-linejoin:round;stroke-miterlimit:2;">
    <g transform="matrix(1,0,0,1,-480,-409)">
        <g>
            <g transform="matrix(1.08283,0,0,1,192.168,-59.6251)">
                <text x="356.13px" y="507.63px" style="font-family:'OpenSans-Regular', 'Open Sans', sans-serif;font-size:33.333px;fill:#f7f7f7;">L<tspan x="371.765px 390.232px 408.698px 424.528px 431.293px 450.085px 466.68px 473.672px 489.209px 507.676px " y="507.63px 507.63px 507.63px 507.63px 507.63px 507.63px 507.63px 507.63px 507.63px 507.63px ">ooking For</tspan></text>
                <text x="356.13px" y="540.963px" style="font-family:'OpenSans-Regular', 'Open Sans', sans-serif;font-size:33.333px;fill:#f7f7f7;">G<tspan x="378.731px 385.495px 397.435px 404.2px 413.829px 425.769px 432.533px 449.567px 468.36px " y="540.963px 540.963px 540.963px 540.963px 540.963px 540.963px 540.963px 540.963px 540.963px ">irlfriend</tspan></text>
            </g>
            <g transform="matrix(0.778519,0,0,0.778519,137.452,164.12)">
                <path d="M467.651,425L440,425L440,315L550,315L550,425L522.349,425L504,375L503.931,375C504.615,373.647 505,372.118 505,370.5C505,368.679 504.512,366.971 503.66,365.5L538.301,345.5L528.301,328.179L459.019,368.179L461.269,372.077L452.609,377.077L454.359,380.108L445.699,385.108L447.449,388.139L456.109,383.139L457.609,385.737L466.269,380.737L469.019,385.5L485.676,375.883L467.651,425ZM501.221,378.327L518.349,425L497,425L497,380.3C498.572,379.98 500.011,379.291 501.221,378.327ZM488.779,378.327C489.99,379.291 491.428,379.98 493,380.3L493,425L471.651,425L488.779,378.327Z" style="fill:#f7f7f7;"/>
            </g>
        </g>
    </g>
</svg>
